<?xml version="1.0" encoding="UTF-8" standalone="no"?>
<svg width="202px" height="50px" viewBox="0 0 202 50" version="1.1" xmlns="http://www.w3.org/2000/svg" xmlns:xlink="http://www.w3.org/1999/xlink">
    <!-- Generator: sketchtool 39.1 (31720) - http://www.bohemiancoding.com/sketch -->
    <title>8B82490A-F806-48E4-93CC-8E934219048A</title>
    <desc>Created with sketchtool.</desc>
    <defs></defs>
    <g id="UI-Web" stroke="none" stroke-width="1" fill="none" fill-rule="evenodd">
        <g id="1.1_Homepage_Applicant_Desktop" transform="translate(-1124.000000, -664.000000)">
            <g id="Group-2" transform="translate(0.000000, 630.000000)">
                <g id="button-copy-2" transform="translate(1125.000000, 35.000000)" fill="#FFFFFF">
                    <rect id="Rectangle-2-Copy" stroke="#FFFFFF" x="0" y="0" width="200" height="48" rx="3"></rect>
                    <text id="App-Store" font-family="OpenSans-Bold, Open Sans" font-size="18" font-weight="bold" fill="#FFFFFF">
                        <tspan x="60" y="37">App Store</tspan>
                    </text>
                    <text id="Download-on-the" font-family="OpenSans, Open Sans" font-size="12" font-weight="normal" fill="#FFFFFF">
                        <tspan x="60" y="17">Download on the</tspan>
                    </text>
                    <g id="apple" transform="translate(15.000000, 9.000000)" fill="#FFFFFF">
                        <g id="Group-3" transform="translate(5.000000, 2.000000)">
                            <path d="M1.01203279,8.82245902 C-1.01665574,12.3434754 0.273147541,17.6865246 2.51665574,20.9262295 C3.63668852,22.5461311 4.7704918,24 6.32390164,24 C6.35311475,24 6.38232787,23.9996066 6.41222951,23.9981311 C7.14186885,23.9693115 7.66947541,23.744459 8.17927869,23.527377 C8.75144262,23.2834426 9.34347541,23.0313443 10.2721967,23.0313443 C11.1554754,23.0313443 11.7191803,23.275377 12.2643934,23.5112459 C12.8014426,23.7437705 13.3551148,23.9842623 14.1727869,23.968918 C15.9221311,23.9362623 16.9964262,22.3674098 17.9439344,20.983082 C18.9328525,19.5380656 19.4288852,18.1348525 19.5960984,17.5988852 L19.6029836,17.5773443 C19.6348525,17.4820328 19.5899016,17.3783607 19.4984262,17.3360656 C19.4957705,17.3348852 19.4865246,17.3310492 19.4842623,17.3302623 C19.1760984,17.2042623 16.4734426,16.005541 16.4454098,12.7377049 C16.4189508,10.0831475 18.472623,8.67767213 18.884459,8.42252459 L18.9037377,8.41062295 C18.9482951,8.38180328 18.979377,8.33645902 18.9897049,8.28422951 C19.0005246,8.23229508 18.9894098,8.17819672 18.9594098,8.13432787 C17.5420328,6.05990164 15.3692459,5.74760656 14.4947213,5.70993443 C14.367541,5.6972459 14.2365246,5.6907541 14.1051148,5.6907541 C13.0777377,5.6907541 12.0937377,6.07878689 11.3030164,6.39039344 C10.7570164,6.60590164 10.2855738,6.7915082 9.96059016,6.7915082 C9.59518033,6.7915082 9.12098361,6.60363934 8.57193443,6.38577049 C7.83816393,6.09413115 7.00593443,5.76413115 6.12491803,5.76413115 C6.10416393,5.76413115 6.08340984,5.76452459 6.06304918,5.76481967 C4.01468852,5.79481967 2.07904918,6.96668852 1.01203279,8.82245902 L1.01203279,8.82245902 Z" id="Fill-1"></path>
                            <path d="M14.4962951,2.32964418e-14 C13.2560656,0.0507540984 11.7683607,0.814131148 10.8788852,1.85577049 C10.123082,2.73147541 9.38459016,4.19104918 9.57944262,5.66262295 C9.59134426,5.75488525 9.66619672,5.826 9.75885246,5.83288525 C9.84255738,5.83937705 9.92832787,5.84281967 10.0132131,5.84281967 C11.2261967,5.84281967 12.5344918,5.172 13.4278033,4.09160656 C14.3683279,2.95081967 14.844,1.48652459 14.6999016,0.175180328 C14.6887869,0.0725901639 14.5980984,-0.00383606557 14.4962951,2.32964418e-14 L14.4962951,2.32964418e-14 Z" id="Fill-3"></path>
                        </g>
                    </g>
                </g>
            </g>
        </g>
    </g>
</svg>