<?xml version="1.0" encoding="UTF-8" standalone="no"?>
<svg width="100px" height="100px" viewBox="0 0 100 100" version="1.1" xmlns="http://www.w3.org/2000/svg" xmlns:xlink="http://www.w3.org/1999/xlink">
    <!-- Generator: sketchtool 39.1 (31720) - http://www.bohemiancoding.com/sketch -->
    <title>C58A732A-8DA6-4020-8F25-E1FF5E255F43</title>
    <desc>Created with sketchtool.</desc>
    <defs></defs>
    <g id="UI-Web" stroke="none" stroke-width="1" fill="none" fill-rule="evenodd">
        <g id="1.1_Homepage_Applicant_Desktop" transform="translate(-911.000000, -853.000000)" stroke-width="2" stroke="#007E9C">
            <g id="categories" transform="translate(400.000000, 852.000000)">
                <g id="row2">
                    <g id="card" transform="translate(503.000000, 1.000000)">
                        <g id="engineering" transform="translate(8.000000, 0.000000)">
                            <g transform="translate(23.000000, 20.000000)">
                                <path d="M42.2753333,48.2823333 C36.3341667,47.629 28.8543333,45.0446667 21.3903333,40.7353333 C7.0415,32.451 -1.8155,20.929 1.60766667,15 C5.03083333,9.071 19.4376667,10.9805 33.7865,19.2646667 C48.1353333,27.5488333 56.9921667,39.071 53.5691667,45 C52.598,46.6821667 50.7426667,47.7333333 48.2555,48.187" id="Shape"></path>
                                <path d="M27.5,37 C23.640108,37 20.5,33.859892 20.5,30 C20.5,26.140108 23.640108,23 27.5,23 C31.359892,23 34.5,26.140108 34.5,30 C34.5,33.859892 31.359892,37 27.5,37 L27.5,37 Z" id="Combined-Shape"></path>
                                <path d="M30.6135,30 C30.6135,28.3208333 29.2473333,26.9546667 27.5681667,26.9546667" id="Combined-Shape" stroke-linecap="round"></path>
                                <path d="M35.3543333,6.61583333 C38.1776667,12.1146667 39.9843333,20.5466667 39.9843333,30 C39.9843333,46.5685 34.4345,60 27.5883333,60 C20.7421667,60 15.1923333,46.5685 15.1923333,30 C15.1923333,13.4315 20.7421667,0 27.5883333,0 C29.0583333,0 30.4686667,0.619333333 31.777,1.75583333" id="Shape"></path>
                                <path d="M1.5975,38.5523333 C0.656166667,41.0348333 0.602333333,43.2586667 1.60766667,45 C5.03066667,50.929 19.4376667,49.0195 33.7865,40.7353333 C48.1353333,32.4511667 56.9921667,20.929 53.5691667,15 C50.1461667,9.071 35.7391667,10.9805 21.3903333,19.2646667 C14.044,23.506 8.13733333,28.5961667 4.581,33.3496667" id="Shape"></path>
                                <path d="M6.057,35.9323333 C6.057,37.5865 4.71116667,38.9323333 3.057,38.9323333 C1.40283333,38.9323333 0.057,37.5865 0.057,35.9323333 C0.057,34.2781667 1.40283333,32.9323333 3.057,32.9323333 C4.71116667,32.9323333 6.057,34.2781667 6.057,35.9323333 L6.057,35.9323333 Z" id="Shape"></path>
                                <path d="M36.7516667,4.082 C36.7516667,5.73616667 35.4058333,7.082 33.7516667,7.082 C32.0975,7.082 30.7516667,5.73616667 30.7516667,4.082 C30.7516667,2.42783333 32.0975,1.082 33.7516667,1.082 C35.4058333,1.082 36.7516667,2.42783333 36.7516667,4.082 L36.7516667,4.082 Z" id="Shape"></path>
                                <path d="M48.2743333,48.2908333 C48.2743333,49.945 46.9285,51.2908333 45.2743333,51.2908333 C43.6201667,51.2908333 42.2743333,49.945 42.2743333,48.2908333 C42.2743333,46.6366667 43.6201667,45.2908333 45.2743333,45.2908333 C46.9285,45.2908333 48.2743333,46.6366667 48.2743333,48.2908333 L48.2743333,48.2908333 Z" id="Shape"></path>
                            </g>
                        </g>
                    </g>
                </g>
            </g>
        </g>
    </g>
</svg>