<?xml version="1.0" encoding="UTF-8" standalone="no"?>
<svg width="9px" height="19px" viewBox="0 0 9 19" version="1.1" xmlns="http://www.w3.org/2000/svg" xmlns:xlink="http://www.w3.org/1999/xlink">
    <!-- Generator: sketchtool 39.1 (31720) - http://www.bohemiancoding.com/sketch -->
    <title>837ECD89-DB63-4C05-93EA-76B890662B0B</title>
    <desc>Created with sketchtool.</desc>
    <defs></defs>
    <g id="UI-Web" stroke="none" stroke-width="1" fill="none" fill-rule="evenodd" opacity="0.6">
        <g id="1.1_Homepage_Applicant_Desktop" transform="translate(-1789.000000, -1505.000000)" fill="#2B2F35">
            <g id="footer" transform="translate(0.000000, 1460.000000)">
                <g id="SOCIALS" transform="translate(1694.000000, 23.000000)">
                    <g id="fb" transform="translate(68.000000, 0.000000)">
                        <path d="M32.5232471,22 C31.9550118,22 31.4095059,22.0687273 30.7730824,22.3207273 C29.4775059,22.8476364 28.8183529,24.0847273 28.8183529,26.0090909 L28.8183529,27.8876364 L27,27.8876364 L27,31.0261818 L28.8183529,31.0261818 L28.8183529,40.0752727 L32.5232471,40.0752727 L32.5232471,31.0261818 L35.0462118,31.0261818 L35.3871529,27.8876364 L32.5232471,27.8876364 L32.5232471,26.4672727 C32.5232471,26.032 32.5687059,25.7112727 32.6823529,25.528 C32.8414588,25.2530909 33.1596706,25.1156364 33.6597176,25.1156364 L35.3416941,25.1156364 L35.3416941,22 L32.5232471,22 Z" id="facebook_s"></path>
                    </g>
                </g>
            </g>
        </g>
    </g>
</svg>