<?xml version="1.0" encoding="UTF-8" standalone="no"?>
<svg width="19px" height="18px" viewBox="0 0 19 18" version="1.1" xmlns="http://www.w3.org/2000/svg" xmlns:xlink="http://www.w3.org/1999/xlink">
    <!-- Generator: sketchtool 39.1 (31720) - http://www.bohemiancoding.com/sketch -->
    <title>3AC00DC2-EED3-4D0D-AF27-659F99F8A5C8</title>
    <desc>Created with sketchtool.</desc>
    <defs></defs>
    <g id="UI-Web" stroke="none" stroke-width="1" fill="none" fill-rule="evenodd" opacity="0.6">
        <g id="1.1_Homepage_Applicant_Desktop" transform="translate(-1717.000000, -1504.000000)" fill="#2B2F35">
            <g id="footer" transform="translate(0.000000, 1460.000000)">
                <g id="SOCIALS" transform="translate(1694.000000, 23.000000)">
                    <g id="in">
                        <path d="M26.8740765,39 L26.8740765,26.4615385 L23.0998866,26.4615385 L23.0998866,39 L26.8740765,39 Z M24.9869816,21 C23.7703019,21 22.9757356,21.8461538 23.0005658,22.974359 C22.9757356,24.0512821 23.7703019,24.9230769 24.9621514,24.9230769 C26.2036612,24.9230769 26.9982275,24.0512821 26.9982275,22.974359 C26.9733973,21.8461538 26.2036612,21 24.9869816,21 Z M29.9033606,39 L33.6775505,39 L33.6775505,31.7692308 C33.6775505,31.4102564 33.7272109,31.025641 33.8265317,30.7948718 C34.0748337,30.0769231 34.6955886,29.3333333 35.7384569,29.3333333 C37.1041177,29.3333333 37.650382,30.4358974 37.650382,32.0512821 L37.650382,39 L41.424572,39 L41.424572,31.5641026 C41.424572,27.8717949 39.5623072,26.1794872 37.0792875,26.1794872 C35.0680415,26.1794872 33.8265317,27.3846154 33.3299278,28.1794872 L33.2554372,28.1794872 L33.0816258,26.4615385 L29.8040398,26.4615385 C29.8537002,27.5641026 29.9033606,28.8974359 29.9033606,30.4615385 L29.9033606,39 Z" id="linkedin_L"></path>
                    </g>
                </g>
            </g>
        </g>
    </g>
</svg>