<?xml version="1.0" encoding="UTF-8" standalone="no"?>
<svg width="64px" height="64px" viewBox="0 0 64 64" version="1.1" xmlns="http://www.w3.org/2000/svg" xmlns:xlink="http://www.w3.org/1999/xlink">
    <!-- Generator: sketchtool 39.1 (31720) - http://www.bohemiancoding.com/sketch -->
    <title>3722D436-C6C1-4740-BA0B-BA3900C3FFDD</title>
    <desc>Created with sketchtool.</desc>
    <defs></defs>
    <g id="UI-Web" stroke="none" stroke-width="1" fill="none" fill-rule="evenodd" opacity="0.6">
        <g id="1.1_Homepage_Applicant_Desktop" transform="translate(-932.000000, -1602.000000)" fill="#8592A5">
            <g id="footer" transform="translate(0.000000, 1460.000000)">
                <g id="logo_monochrome" transform="translate(932.000000, 142.000000)">
                    <g id="Layer_1" transform="translate(4.107807, 2.132218)">
                        <ellipse id="Oval" cx="27.5439789" cy="53.7671143" rx="5.8475503" ry="5.82068574"></ellipse>
                        <path d="M50.6981743,0 C54.8017184,0 57.5716107,4.18680904 55.8788987,7.96514891 L41.6703774,39.6725686 C40.74708,41.7149145 38.7466022,43.0424393 36.489653,43.0424393 L36.489653,43.0424393 C32.3861089,43.0424393 29.6162167,38.8045716 31.3089286,35.0772904 L45.4661557,3.36987069 C46.3894531,1.32752482 48.4412251,0 50.6981743,0 L50.6981743,0 L50.6981743,0 Z" id="Shape"></path>
                        <path d="M32.1647372,0 C36.2682813,0 39.0381735,4.18680904 37.3454616,7.96514891 L23.1882345,39.7236272 C22.2649371,41.7659731 20.2644594,43.0934979 18.0075101,43.0934979 L18.0075101,43.0934979 C13.9039661,43.0934979 11.1340738,38.9066889 12.8267858,35.128349 L26.9840128,3.36987069 C27.9073102,1.32752482 29.9590823,0 32.1647372,0 L32.1647372,0 L32.1647372,0 Z" id="Shape"></path>
                        <path d="M15.7397645,14.2964211 L9.53315414,28.1843731 L0.505357184,7.96514891 C-1.18735475,4.23786769 1.5825375,0 5.68608157,0 C7.94303081,0 9.94350855,1.32752482 10.866806,3.36987069 L15.7397645,14.2964211 L15.7397645,14.2964211 Z" id="Shape"></path>
                    </g>
                </g>
            </g>
        </g>
    </g>
</svg>