<?xml version="1.0" encoding="UTF-8" standalone="no"?>
<svg width="64px" height="64px" viewBox="0 0 64 64" version="1.1" xmlns="http://www.w3.org/2000/svg" xmlns:xlink="http://www.w3.org/1999/xlink">
    <!-- Generator: sketchtool 39.1 (31720) - http://www.bohemiancoding.com/sketch -->
    <title>6AA05082-47D0-48F6-8DE9-8A4624E895B4</title>
    <desc>Created with sketchtool.</desc>
    <defs>
        <linearGradient x1="50%" y1="0%" x2="50%" y2="100%" id="linearGradient-1">
            <stop stop-color="#35D3C1" offset="0%"></stop>
            <stop stop-color="#00A5CB" offset="100%"></stop>
        </linearGradient>
    </defs>
    <g id="UI-Web" stroke="none" stroke-width="1" fill="none" fill-rule="evenodd">
        <g id="1.1_Homepage_Applicant_Desktop" transform="translate(-928.000000, -8.000000)" fill="url(#linearGradient-1)">
            <g id="header">
                <g id="logo_gradient" transform="translate(928.000000, 8.000000)">
                    <path d="M31.187612,56 C33.7890944,56 35.8980127,53.9007705 35.8980127,51.3112396 C35.8980127,48.7217088 33.7890944,46.6224793 31.187612,46.6224793 C28.5861295,46.6224793 26.4772113,48.7217088 26.4772113,51.3112396 C26.4772113,53.9007705 28.5861295,56 31.187612,56 Z M49.8391041,8 C53.1446484,8 55.3758909,11.3726171 54.0123538,14.4161984 L42.5669065,39.9576036 C41.8231591,41.6027827 40.2117062,42.6721491 38.3936568,42.6721491 C35.0881125,42.6721491 32.85687,39.2584025 34.2204071,36.2559507 L45.6245351,10.7145455 C46.3682825,9.0693664 48.0210547,8 49.8391041,8 Z M34.90979,8 C38.2153343,8 40.4465768,11.3726171 39.0830397,14.4161984 L27.6789117,39.9987331 C26.9351643,41.6439121 25.3237114,42.7132785 23.505662,42.7132785 C20.2001177,42.7132785 17.9688752,39.3406614 19.3324123,36.2970801 L30.7365403,10.7145455 C31.4802877,9.0693664 33.1330599,8 34.90979,8 Z M21.6789158,19.5162535 L16.67928,30.7034713 L9.4070824,14.4161984 C8.04354536,11.4137466 10.2747878,8 13.5803321,8 C15.3983815,8 17.0098344,9.0693664 17.7535819,10.7145455 L21.6789158,19.5162535 Z" id="Combined-Shape"></path>
                </g>
            </g>
        </g>
    </g>
</svg>