<?xml version="1.0" encoding="UTF-8" standalone="no"?>
<svg width="100px" height="100px" viewBox="0 0 100 100" version="1.1" xmlns="http://www.w3.org/2000/svg" xmlns:xlink="http://www.w3.org/1999/xlink">
    <!-- Generator: sketchtool 39.1 (31720) - http://www.bohemiancoding.com/sketch -->
    <title>1620B6BA-F9C2-4401-9D60-05AD499F53CA</title>
    <desc>Created with sketchtool.</desc>
    <defs></defs>
    <g id="UI-Web" stroke="none" stroke-width="1" fill="none" fill-rule="evenodd">
        <g id="1.1_Homepage_Applicant_Desktop" transform="translate(-910.000000, -1164.000000)" stroke-width="2" stroke="#007E9C">
            <g id="categories" transform="translate(400.000000, 852.000000)">
                <g id="row2">
                    <g id="card" transform="translate(510.000000, 312.000000)">
                        <g id="medicine">
                            <g transform="translate(17.000000, 20.000000)" id="Shape">
                                <path d="M24.7381249,15.9407147 C25.2783009,14.3707267 26.2151338,14.3449322 26.8305159,15.8828914 L35.6402,37.9 L41.1332,27.4 L63.624,27.4 C63.624,27.4 64.3624,25.7372 64.6556,24.9002 C65.4508,22.6298 65.868,20.3262 65.868,17.937 C65.868,7.821 57.978,0 47.79,0 C42.204,0 36.615,2.61 33,6.846 C29.385,2.61 23.796,0 18.21,0 C8.022,0 0.132,7.821 0.132,17.934 C0.132,19.5058 0.315,21.3464 0.6682,23.2414 C0.9264,24.6266 1.711,27.4 1.711,27.4 L20.7954,27.4 L24.7381249,15.9407147 Z"></path>
                                <path d="M36.7802532,44.8953535 C36.0401622,46.3820193 34.9415579,46.347024 34.3196699,44.8003226 L25.9162,23.9 L23.2,32.1334 C23.2,32.1334 8.59160152,32.1333998 3.989,32.1334 C11.5904296,47.5872009 33.2,61.0002 33.2,61.0002 C33.2,61.0002 52.5228531,49.5621101 61.0126,32.1334 C54.8226578,32.1333998 43.1334,32.1334 43.1334,32.1334 L36.7802532,44.8953535 Z"></path>
                            </g>
                        </g>
                    </g>
                </g>
            </g>
        </g>
    </g>
</svg>