<?xml version="1.0" encoding="UTF-8" standalone="no"?>
<svg width="100px" height="100px" viewBox="0 0 100 100" version="1.1" xmlns="http://www.w3.org/2000/svg" xmlns:xlink="http://www.w3.org/1999/xlink">
    <!-- Generator: sketchtool 39.1 (31720) - http://www.bohemiancoding.com/sketch -->
    <title>79F43D4E-DE64-4CEF-ACFF-DFAB396B8FEB</title>
    <desc>Created with sketchtool.</desc>
    <defs></defs>
    <g id="UI-Web" stroke="none" stroke-width="1" fill="none" fill-rule="evenodd">
        <g id="1.1_Homepage_Applicant_Desktop" transform="translate(-464.000000, -852.000000)" stroke-width="2" stroke="#007E9C">
            <g id="categories" transform="translate(400.000000, 852.000000)">
                <g id="row2">
                    <g id="card">
                        <g id="office&amp;adm" transform="translate(64.000000, 0.000000)">
                            <g transform="translate(19.000000, 20.000000)" id="Shape">
                                <polygon points="16.537551 59.4277551 0.545102041 59.4277551 0.545102041 0.164081633 16.537551 0.164081633"></polygon>
                                <path d="M8.15877551,43.7895918 C10.4808163,43.5587755 12.4197959,45.4977551 12.1889796,47.8197959 C12.0181633,49.5383673 10.6281633,50.9283673 8.90959184,51.0991837 C6.58755102,51.33 4.64857143,49.3910204 4.87938776,47.0689796 C5.05020408,45.3504082 6.44020408,43.9604082 8.15877551,43.7895918 L8.15877551,43.7895918 Z"></path>
                                <path d="M13.4320408,8.57142857 L3.63612245,8.57142857" stroke-linecap="round"></path>
                                <path d="M13.4320408,13.4693878 L3.63612245,13.4693878" stroke-linecap="round"></path>
                                <polygon points="39.0165306 59.4277551 23.0240816 59.4277551 23.0240816 0.164081633 39.0165306 0.164081633"></polygon>
                                <path d="M30.6377551,43.7895918 C32.9597959,43.5587755 34.8987755,45.4977551 34.6679592,47.8197959 C34.4971429,49.5383673 33.1071429,50.9283673 31.3885714,51.0991837 C29.0665306,51.33 27.127551,49.3910204 27.3583673,47.0689796 C27.5291837,45.3504082 28.9191837,43.9604082 30.6377551,43.7895918 L30.6377551,43.7895918 Z"></path>
                                <path d="M35.9110204,8.57142857 L26.115102,8.57142857" stroke-linecap="round"></path>
                                <path d="M35.9110204,13.4693878 L26.115102,13.4693878" stroke-linecap="round"></path>
                                <polygon points="61.4957143 59.4277551 45.5032653 59.4277551 45.5032653 0.164081633 61.4957143 0.164081633"></polygon>
                                <path d="M53.1167347,43.7895918 C55.4387755,43.5587755 57.3777551,45.4977551 57.1469388,47.8197959 C56.9761224,49.5383673 55.5861224,50.9283673 53.867551,51.0991837 C51.5455102,51.33 49.6065306,49.3910204 49.8373469,47.0689796 C50.0081633,45.3504082 51.3981633,43.9604082 53.1167347,43.7895918 L53.1167347,43.7895918 Z"></path>
                                <path d="M58.3902041,8.57142857 L48.5942857,8.57142857" stroke-linecap="round"></path>
                                <path d="M58.3902041,13.4693878 L48.5942857,13.4693878" stroke-linecap="round"></path>
                            </g>
                        </g>
                    </g>
                </g>
            </g>
        </g>
    </g>
</svg>