<?xml version="1.0" encoding="UTF-8" standalone="no"?>
<svg width="100px" height="100px" viewBox="0 0 100 100" version="1.1" xmlns="http://www.w3.org/2000/svg" xmlns:xlink="http://www.w3.org/1999/xlink">
    <!-- Generator: sketchtool 39.1 (31720) - http://www.bohemiancoding.com/sketch -->
    <title>41D837C7-9693-454B-B8A1-7146C8FC6630</title>
    <desc>Created with sketchtool.</desc>
    <defs></defs>
    <g id="UI-Web" stroke="none" stroke-width="1" fill="none" fill-rule="evenodd">
        <g id="1.1_Homepage_Applicant_Desktop" transform="translate(-464.000000, -1164.000000)" fill="#007E9C">
            <g id="categories" transform="translate(400.000000, 852.000000)">
                <g id="row2">
                    <g id="card" transform="translate(64.000000, 312.000000)">
                        <g id="sale">
                            <g transform="translate(15.000000, 19.000000)" id="Combined-Shape">
                                <path d="M37.0572151,31.6240482 L38.4189365,31.5716375 L23.5940309,18.7993734 L22.964429,18.2569456 L22.3159476,18.7766553 L0.3746268,36.360995 C-0.0563352413,36.706379 -0.125709886,37.3357319 0.219674195,37.766694 C0.565058277,38.197656 1.19441116,38.2670306 1.6253732,37.9216466 L23.566694,20.3373069 L22.2886106,20.3145889 L37.1135163,33.086853 L37.8187715,33.6944593 L38.4752377,33.0344424 L69.5920302,1.74934805 C69.9814998,1.35777191 69.9797921,0.724609235 69.588216,0.335139629 C69.1966398,-0.0543299775 68.5634772,-0.0526222972 68.1740076,0.338953839 L37.0572151,31.6240482 Z M0.447735849,60.5783019 L0.447735849,61.5783019 L1.44773585,61.5783019 L20.0720755,61.5783019 L21.0720755,61.5783019 L21.0720755,60.5783019 L21.0720755,29.3469811 L21.0720755,27.2861739 L19.453251,28.5614518 L0.828911385,43.2333386 L0.447735849,43.5336212 L0.447735849,44.0188679 L0.447735849,60.5783019 Z M2.06656031,44.8043972 L20.6908999,30.1325104 L19.0720755,29.3469811 L19.0720755,60.5783019 L20.0720755,59.5783019 L1.44773585,59.5783019 L2.44773585,60.5783019 L2.44773585,44.0188679 L2.06656031,44.8043972 Z M45.2745283,33.7703774 L45.2745283,31.1846269 L43.5347381,33.0975397 L37.3249268,39.9252756 L38.7289842,39.850618 L26.3144559,28.8183539 L24.6501887,27.3393903 L24.6501887,29.5658491 L24.6501887,60.5784906 L24.6501887,61.5784906 L25.6501887,61.5784906 L44.2745283,61.5784906 L45.2745283,61.5784906 L45.2745283,60.5784906 L45.2745283,33.7703774 Z M44.2745283,59.5784906 L25.6501887,59.5784906 L26.6501887,60.5784906 L26.6501887,29.5658491 L24.9859215,30.3133442 L37.4004498,41.3456084 L38.1393795,42.0022639 L38.8045072,41.2709508 L45.0143185,34.443215 L43.2745283,33.7703774 L43.2745283,60.5784906 L44.2745283,59.5784906 Z M69.9245283,17.1632075 L69.9245283,16.7599621 L69.6448002,16.4695157 L65.8827248,12.5632893 L65.174673,11.8281072 L64.4541507,12.5510717 L49.5918865,27.4637133 L49.3001887,27.7563998 L49.3001887,28.1696226 L49.3001887,60.5783019 L49.3001887,61.5783019 L50.3001887,61.5783019 L68.9245283,61.5783019 L69.9245283,61.5783019 L69.9245283,60.5783019 L69.9245283,17.1632075 Z M68.9245283,59.5783019 L50.3001887,59.5783019 L51.3001887,60.5783019 L51.3001887,28.1696226 L51.0084908,28.875532 L65.870755,13.9628905 L64.4421809,13.950673 L68.2042564,17.8568994 L67.9245283,17.1632075 L67.9245283,60.5783019 L68.9245283,59.5783019 Z M69.8830189,1.04415094 L69.8830189,0.0441509434 L68.8830189,0.0441509434 L59.5707547,0.0441509434 C59.01847,0.0441509434 58.5707547,0.491866194 58.5707547,1.04415094 C58.5707547,1.59643569 59.01847,2.04415094 59.5707547,2.04415094 L68.8830189,2.04415094 L67.8830189,1.04415094 L67.8830189,10.3564151 C67.8830189,10.9086998 68.3307341,11.3564151 68.8830189,11.3564151 C69.4353036,11.3564151 69.8830189,10.9086998 69.8830189,10.3564151 L69.8830189,1.04415094 Z"></path>
                            </g>
                        </g>
                    </g>
                </g>
            </g>
        </g>
    </g>
</svg>