<?xml version="1.0" encoding="UTF-8" standalone="no"?>
<svg width="100px" height="100px" viewBox="0 0 100 100" version="1.1" xmlns="http://www.w3.org/2000/svg" xmlns:xlink="http://www.w3.org/1999/xlink">
    <!-- Generator: sketchtool 39.1 (31720) - http://www.bohemiancoding.com/sketch -->
    <title>60052EC0-1119-4405-A1F3-6C5C40968FE5</title>
    <desc>Created with sketchtool.</desc>
    <defs></defs>
    <g id="UI-Web" stroke="none" stroke-width="1" fill="none" fill-rule="evenodd">
        <g id="1.1_Homepage_Applicant_Desktop" transform="translate(-1360.000000, -1158.000000)" fill="#007E9C">
            <g id="categories" transform="translate(400.000000, 852.000000)">
                <g id="row2">
                    <g id="card" transform="translate(900.000000, 306.000000)">
                        <g id="teaching" transform="translate(60.000000, 0.000000)">
                            <g transform="translate(7.000000, 19.000000)" id="Combined-Shape">
                                <path d="M50.1785242,50.9826337 C48.9759126,51.3364563 47.8639723,51.7080873 46.7054271,52.1324756 C46.0435854,52.3749157 44.1568074,53.0988912 44.1944615,53.0847264 L45.5465551,54.0206912 L45.5465551,6.12282633 L44.9200912,7.050442 C47.2979938,6.0928986 49.0990838,5.46162271 51.9499425,4.71423726 C57.9630321,3.1378366 65.1254262,2.16709296 73.6498726,2.07632456 L72.6392582,1.0682527 C72.599578,5.94967755 72.5821049,12.779816 72.5830052,21.0622682 C72.5836655,27.1368082 72.5941078,33.6440848 72.6111023,40.163424 C72.6172556,42.5239203 72.6238484,44.7190151 72.6304413,46.6914504 C72.6327489,47.3818194 72.6348916,47.9950501 72.6368147,48.5239849 C72.6387928,49.0601151 72.6387928,49.0601151 72.6392328,49.1731631 L73.6392252,48.1692714 C63.7063736,48.1692714 56.2779984,49.1880963 50.1785242,50.9826337 Z M74.6431245,50.1692714 L74.6392176,49.1653797 C74.6387786,49.0525766 74.6387786,49.0525766 74.6368015,48.5167136 C74.6348791,47.9879709 74.632737,47.3749355 74.6304301,46.6847654 C74.6238388,44.7128031 74.6172474,42.5181957 74.6110955,40.1582104 C74.594105,33.6404126 74.5836653,27.1347336 74.5830052,21.0620508 C74.5821054,12.7846492 74.5995665,5.95922324 74.6391921,1.08450979 L74.6474748,0.0655887045 L73.6285778,0.0764379311 C64.939296,0.168961501 57.6137546,1.16181704 51.4427589,2.77961461 C48.4965746,3.55199076 46.6224296,4.20887218 44.1730191,5.19521065 L43.5465551,5.44747769 L43.5465551,6.12282633 L43.5465551,54.0206912 L43.5465551,55.46529 L44.8986487,54.956656 C44.873695,54.9660431 46.7486605,54.2466002 47.3933482,54.0104438 C48.5133196,53.6001855 49.5847547,53.2420921 50.7430231,52.9013158 C56.6546137,51.162056 63.8931258,50.1692714 73.6392252,50.1692714 L74.6431245,50.1692714 Z M38.5863589,52.1316743 C37.4522412,51.6976883 36.4154455,51.334475 35.2793816,50.9856258 C29.3960597,49.1790445 22.0162463,48.1692714 11.5657055,48.1692714 L12.5655895,49.1844981 C12.659043,43.0477219 12.6746153,2.22987643 12.5616043,0.98590672 L11.5550804,2.0763248 C20.0815901,2.16692474 27.2469144,3.13760316 33.2672161,4.71443434 C36.1045382,5.45758281 37.911631,6.08884476 40.2860985,7.04126275 L39.6583755,6.1131411 L39.6583755,54.0121065 L41.0094649,53.0757646 C40.6289136,52.9330737 38.9999693,52.2899481 38.5863589,52.1316743 Z M7.2800293,4.84085961 L7.2800293,2.97886859 L1,2.97886859 L0,2.97886859 L0,3.97886859 L0,59.6279991 L0,60.6279991 L1,60.6279991 L36.659256,60.6279991 L36.2120424,60.5224263 L38.8534688,61.8431395 L39.0646144,61.9487123 L45.9042483,61.9487123 L46.3514619,61.8431395 L48.9928883,60.5224263 L48.5456747,60.6279991 L84.2049307,60.6279991 L85.2049307,60.6279991 L85.2049307,59.6279991 L85.2049307,3.97886859 L85.2049307,2.97886859 L84.2049307,2.97886859 L77.9200439,2.97886859 L77.9290832,4.78495203 C77.9232813,4.82802325 77.9202083,4.87195786 77.9200439,4.91657493 C77.9220779,5.50734421 77.9220779,5.50734421 77.9220779,8.09604417 C77.9220778,11.5011363 77.9220778,11.5011363 77.9220778,16.1738662 C77.9220778,17.997328 77.9220777,19.3010878 77.9220777,20.3973389 C77.9220777,23.1474694 77.9220777,24.5916605 77.9220777,29.6588484 C77.9220776,37.5849634 77.9220776,37.5849634 77.9220776,44.5470538 C77.9220777,50.5451196 77.9220777,49.5451196 77.9200439,52.6511117 L78.9123608,52.6511588 C78.6623576,52.6535882 78.4140262,52.6561538 78.1673587,52.6588563 C61.9892772,52.8361017 52.9687767,53.6020484 48.8664844,55.1452591 C48.3495653,55.339715 48.0881573,55.9163984 48.2826132,56.4333175 C48.4770692,56.9502365 49.0537526,57.2116446 49.5706716,57.0171887 C53.427955,55.5661461 62.5444427,54.8103093 78.931795,54.6510644 L79.922078,54.6414413 L79.9220779,53.6511115 C79.9220777,50.5451196 79.9220777,50.5451196 79.9220776,44.5470538 C79.9220776,37.5849634 79.9220776,37.5849634 79.9220777,29.6588484 C79.9220777,22.5717891 79.9220777,22.5717891 79.9220778,16.1738662 C79.9220778,11.5011363 79.9220778,11.5011363 79.9220779,8.09604419 C79.9220779,5.55806324 79.9220779,5.50833795 79.9220779,4.95064242 L84.2049307,4.97886859 L83.2049307,3.97886859 L83.2049307,59.6279991 L84.2049307,58.6279991 L48.5456747,58.6279991 L48.0984611,58.7335719 L45.4570347,60.0542851 L45.9042483,59.9487123 L39.3006824,59.9487123 L39.747896,60.0542851 L37.1064696,58.7335719 L36.895324,58.6279991 L1,58.6279991 L2,59.6279991 L2,3.97886859 L1,4.97886859 L5.28285274,4.97886859 L5.28285274,53.6511116 L5.28285274,54.6414083 L6.27310232,54.6510641 C22.61117,54.8103747 31.721544,55.5668229 35.5770281,57.0171887 C36.0939472,57.2116446 36.6706306,56.9502365 36.8650865,56.4333175 C37.0595424,55.9163984 36.7981344,55.339715 36.2812153,55.1452591 C32.1183017,53.5792437 22.8899277,52.8129977 6.29260316,52.6511591 L7.28285274,53.6511116 L7.28285274,4.91657495 C7.28285274,4.89110284 7.28190037,4.86585317 7.2800293,4.84085961 Z M41.6583755,55.4550509 L41.6583755,54.0121065 L41.6583755,6.1131411 L41.6583755,5.43680416 L41.0306526,5.18501945 C38.5852722,4.20415774 36.7056753,3.54756831 33.7739606,2.77969662 C27.5959148,1.16154929 20.2675808,0.168788111 11.5763306,0.0764376936 L10.4696771,0.0646787515 L10.5698067,1.16685577 C10.6731713,2.30464194 10.6575971,43.1274417 10.5658214,49.1540447 L10.5503611,50.1692714 L11.5657055,50.1692714 C21.8251805,50.1692714 29.0082296,51.1521214 34.6922999,52.8975189 C35.7815067,53.2319797 36.7768454,53.5806697 37.8715771,53.9995841 C38.269279,54.1517703 39.9068407,54.798298 40.3072861,54.9484485 L41.6583755,55.4550509 Z"></path>
                            </g>
                        </g>
                    </g>
                </g>
            </g>
        </g>
    </g>
</svg>